<svg width="450" height="206" viewBox="0 0 450 206" fill="none" xmlns="http://www.w3.org/2000/svg">
<rect x="163.453" width="40.3588" height="40.3588" fill="#006cff"/>
<rect x="204.82" width="40.3588" height="40.3588" fill="#006cff"/>
<rect x="246.188" width="40.3588" height="40.3588" fill="#006cff"/>
<rect x="163.453" y="82.7356" width="40.3588" height="40.3588" fill="#0050cc"/>
<rect x="246.188" y="82.7356" width="40.3588" height="40.3588" fill="#0050cc"/>
<rect x="204.82" y="165.471" width="40.3588" height="40.3588" fill="#0050cc"/>
<rect x="246.188" y="165.471" width="40.3588" height="40.3588" fill="#0050cc"/>
<rect x="246.188" y="124.103" width="40.3588" height="40.3588" fill="#0050cc"/>
<rect x="163.453" y="124.103" width="40.3588" height="40.3588" fill="#0050cc"/>
<rect x="163.453" y="41.3678" width="40.3588" height="40.3588" fill="#006cff"/>
<rect x="246.188" y="41.3678" width="40.3588" height="40.3588" fill="#006cff"/>
<rect x="163.453" y="165.471" width="40.3588" height="40.3588" fill="#0050cc"/>
<rect width="40.3588" height="40.3588" fill="#0050cc"/>
<rect x="82.7354" width="40.3588" height="40.3588" fill="#0050cc"/>
<rect y="82.7356" width="40.3588" height="40.3588" fill="#0050cc"/>
<rect y="41.3678" width="40.3588" height="40.3588" fill="#0050cc"/>
<rect x="41.3672" width="40.3588" height="40.3588" fill="#0050cc"/>
<rect x="82.7354" y="124.103" width="40.3588" height="40.3588" fill="#006cff"/>
<rect x="41.3672" y="82.7356" width="40.3588" height="40.3588" fill="#0050cc"/>
<rect x="82.7354" y="82.7356" width="40.3588" height="40.3588" fill="#0050cc"/>
<rect x="82.7354" y="165.471" width="40.3588" height="40.3588" fill="#006cff"/>
<rect x="41.3672" y="165.471" width="40.3588" height="40.3588" fill="#006cff"/>
<rect y="165.471" width="40.3588" height="40.3588" fill="#006cff"/>
<rect x="326.906" width="40.3588" height="40.3588" fill="#006cff"/>
<rect x="409.642" width="40.3588" height="40.3588" fill="#006cff"/>
<rect x="368.273" width="40.3588" height="40.3588" fill="#006cff"/>
<rect x="326.906" y="82.7356" width="40.3588" height="40.3588" fill="#0050cc"/>
<rect x="326.906" y="41.3678" width="40.3588" height="40.3588" fill="#006cff"/>
<rect x="409.642" y="41.3678" width="40.3588" height="40.3588" fill="#006cff"/>
<rect x="409.642" y="124.103" width="40.3588" height="40.3588" fill="#0050cc"/>
<rect x="409.642" y="82.7356" width="40.3588" height="40.3588" fill="#0050cc"/>
<rect x="409.642" y="165.471" width="40.3588" height="40.3588" fill="#0050cc"/>
<rect x="368.273" y="165.471" width="40.3588" height="40.3588" fill="#0050cc"/>
<rect x="326.906" y="165.471" width="40.3588" height="40.3588" fill="#0050cc"/>
<rect x="326.906" y="124.103" width="40.3588" height="40.3588" fill="#0050cc"/>
</svg>
